<svg aria-hidden="true" style="position: absolute; width: 0; height: 0; overflow: hidden;" version="1.1" xmlns="http://www.w3.org/2000/svg" xmlns:xlink="http://www.w3.org/1999/xlink">
<defs>
<symbol id="icon-eye" viewBox="0 0 32 32">
<path stroke-width="3.2" stroke-miterlimit="4" stroke-linecap="round" stroke-linejoin="round" d="M23.92 23.92c-2.175 1.672-4.923 2.697-7.908 2.747l-0.012 0c-9.333 0-14.667-10.667-14.667-10.667 1.713-3.152 3.978-5.791 6.689-7.877l0.058-0.043M13.2 5.653c0.833-0.203 1.788-0.32 2.771-0.32 0.010 0 0.020 0 0.030 0h-0.002c9.334 0 14.667 10.667 14.667 10.667-0.871 1.615-1.827 3.008-2.91 4.289l0.030-0.036M18.827 18.827c-0.731 0.774-1.764 1.256-2.91 1.256-2.209 0-4-1.791-4-4 0-1.146 0.482-2.179 1.254-2.909l0.002-0.002"></path>
</symbol>
<symbol id="icon-eye-off" viewBox="0 0 32 32">
<path stroke-width="3.2" stroke-miterlimit="4" stroke-linecap="round" stroke-linejoin="round" d="M23.92 23.92c-2.175 1.672-4.923 2.697-7.908 2.747l-0.012 0c-9.333 0-14.667-10.667-14.667-10.667 1.713-3.152 3.978-5.791 6.689-7.877l0.058-0.043M13.2 5.653c0.833-0.203 1.788-0.32 2.771-0.32 0.010 0 0.020 0 0.030 0h-0.002c9.334 0 14.667 10.667 14.667 10.667-0.871 1.615-1.827 3.008-2.91 4.289l0.030-0.036M18.827 18.827c-0.731 0.774-1.764 1.256-2.91 1.256-2.209 0-4-1.791-4-4 0-1.146 0.482-2.179 1.254-2.909l0.002-0.002M1.333 1.333l29.334 29.334"></path>
</symbol>
<symbol id="icon-star" viewBox="0 0 32 32">
<path fill="#ffc531" stroke="#ffc531" stroke-width="2.4" stroke-miterlimit="4" stroke-linecap="butt" stroke-linejoin="miter" style="fill: var(--color1, #ffc531); stroke: var(--color1, #ffc531)" d="M12.4 9.394l3.6-6.822 3.6 6.822c0.318 0.604 0.9 1.024 1.57 1.14l7.6 1.316-5.376 5.532c-0.385 0.396-0.622 0.937-0.622 1.533 0 0.11 0.008 0.219 0.024 0.325l-0.001-0.012 1.1 7.636-6.924-3.404c-0.283-0.142-0.617-0.225-0.97-0.225s-0.687 0.083-0.983 0.231l0.013-0.006-6.924 3.404 1.1-7.636c0.014-0.094 0.022-0.202 0.022-0.313 0-0.596-0.237-1.138-0.623-1.534l0.001 0-5.378-5.532 7.6-1.314c0.687-0.122 1.254-0.547 1.566-1.13l0.006-0.012z"></path>
</symbol>
<symbol id="icon-close" viewBox="0 0 32 32">
<path stroke-width="2.5" stroke-miterlimit="4" stroke-linecap="round" stroke-linejoin="round" d="M24 8l-16 16M8 8l16 16"></path>
</symbol>
<symbol id="icon-login" viewBox="0 0 32 32">
<path fill="none" stroke="#f4c550" stroke-width="3.2" stroke-miterlimit="4" stroke-linecap="round" stroke-linejoin="round" style="stroke: var(--color2, #f4c550)" d="M20 4h1.6c2.24 0 3.36 0 4.216 0.435 0.756 0.391 1.357 0.992 1.737 1.726l0.011 0.022c0.437 0.856 0.437 1.976 0.437 4.216v11.2c0 2.24 0 3.36-0.437 4.216-0.391 0.756-0.992 1.356-1.725 1.737l-0.022 0.011c-0.856 0.437-1.976 0.437-4.216 0.437h-1.6M13.333 9.333l6.667 6.667M20 16l-6.667 6.667M20 16h-16"></path>
</symbol>
<symbol id="icon-heartplus" viewBox="0 0 32 32">
<path fill="#f4c550" stroke="#f4c550" stroke-width="1.2308" stroke-miterlimit="4" stroke-linecap="round" stroke-linejoin="round" style="fill: var(--color2, #f4c550); stroke: var(--color2, #f4c550)" d="M27.787 6.146c-1.327-1.328-3.161-2.149-5.187-2.149s-3.86 0.821-5.187 2.149l-1.413 1.414-1.413-1.414c-1.331-1.35-3.18-2.186-5.224-2.186-4.051 0-7.335 3.284-7.335 7.335 0 2.044 0.836 3.892 2.184 5.223l0.001 0.001 11.787 11.787 11.787-11.787c1.327-1.327 2.148-3.161 2.148-5.186s-0.821-3.859-2.148-5.186v0z"></path>
</symbol>
<symbol id="icon-heart" viewBox="0 0 32 32">
<path fill="none" stroke="black" stroke-width="2.4615" stroke-miterlimit="4" stroke-linecap="round" stroke-linejoin="round" d="M27.787 6.146c-1.327-1.328-3.161-2.149-5.187-2.149s-3.86 0.821-5.187 2.149l-1.413 1.414-1.413-1.414c-1.324-1.306-3.143-2.112-5.15-2.112-4.051 0-7.335 3.284-7.335 7.335 0 2.007 0.806 3.826 2.112 5.15l11.786 11.786 11.787-11.787c1.327-1.327 2.148-3.161 2.148-5.186s-0.821-3.859-2.148-5.186v0z"></path>
</symbol>
<symbol id="icon-online" viewBox="0 0 32 32">
<path fill="#fff" style="fill: var(--color3, #fff)" d="M32 16c0 8.837-7.163 16-16 16s-16-7.163-16-16c0-8.837 7.163-16 16-16s16 7.163 16 16z"></path>
<path fill="#38cd3e" style="fill: var(--color4, #38cd3e)" d="M26.667 16c0 5.891-4.776 10.667-10.667 10.667s-10.667-4.776-10.667-10.667c0-5.891 4.776-10.667 10.667-10.667s10.667 4.776 10.667 10.667z"></path>
</symbol>
<symbol id="icon-book-open" viewBox="0 0 32 32">
<path fill='none' stroke="black" stroke-width="3" stroke-miterlimit="4" stroke-linecap="round" stroke-linejoin="round" d="M29.334 8.266c0-1.492 0-2.24-0.292-2.81-0.26-0.504-0.66-0.905-1.149-1.159l-0.015-0.007c-0.572-0.29-1.318-0.29-2.812-0.29h-0.532c-2.988 0-4.48 0-5.622 0.58-1.004 0.512-1.82 1.328-2.33 2.332-0.582 1.14-0.582 2.634-0.582 5.62v15.468l0.134-0.2c0.926-1.39 1.388-2.084 2-2.586 0.542-0.446 1.166-0.78 1.838-0.984 0.756-0.23 1.592-0.23 3.26-0.23h1.834c1.494 0 2.24 0 2.812-0.29 0.5-0.256 0.908-0.664 1.164-1.166 0.292-0.57 0.292-1.318 0.292-2.81v-11.468zM2.666 8.266c0-1.492 0-2.24 0.292-2.81 0.254-0.5 0.662-0.91 1.164-1.166 0.572-0.29 1.318-0.29 2.812-0.29h0.532c2.988 0 4.48 0 5.62 0.58 1.006 0.512 1.82 1.328 2.332 2.332 0.582 1.14 0.582 2.634 0.582 5.62v15.468l-0.134-0.2c-0.926-1.39-1.388-2.084-2-2.586-0.518-0.429-1.131-0.766-1.8-0.974l-0.038-0.010c-0.758-0.23-1.592-0.23-3.26-0.23h-1.834c-1.494 0-2.24 0-2.812-0.29-0.504-0.261-0.904-0.662-1.157-1.151l-0.007-0.015c-0.292-0.57-0.292-1.318-0.292-2.81v-11.468z"></path>
</symbol>
<symbol id="icon-burger" viewBox="0 0 32 32">
    <path d="M2.857 9.714h26.286c1.578 0 2.857-1.279 2.857-2.857s-1.279-2.857-2.857-2.857h-26.286c-1.578 0-2.857 1.279-2.857 2.857s1.279 2.857 2.857 2.857zM29.143 13.143h-26.286c-1.578 0-2.857 1.279-2.857 2.857s1.279 2.857 2.857 2.857h26.286c1.578 0 2.857-1.279 2.857-2.857s-1.279-2.857-2.857-2.857zM29.143 22.286h-26.286c-1.578 0-2.857 1.279-2.857 2.857s1.279 2.857 2.857 2.857h26.286c1.578 0 2.857-1.279 2.857-2.857s-1.279-2.857-2.857-2.857z"></path>
    </symbol>
</defs>
</svg>
